<?xml version="1.0" encoding="UTF-8"?>
<svg version="1.1" xmlns="http://www.w3.org/2000/svg" width="500" height="500">
<path d="M0 0 C27.06 0 54.12 0 82 0 C82.495 1.98 82.495 1.98 83 4 C71.45 4 59.9 4 48 4 C48.33 31.72 48.66 59.44 49 88 C51.475 82.06 51.475 82.06 54 76 C55.94904244 73.07643635 57.71723102 70.5991924 60 68 C60.50015625 67.40703125 61.0003125 66.8140625 61.515625 66.203125 C72.47883482 54.17552587 88.65084295 49.72972292 104.4375 48.796875 C117.28800231 48.62778944 129.25880099 50.55760893 141 56 C141 57.65 141 59.3 141 61 C138.00457874 60.00746071 135.01441195 59.00503184 132.03515625 57.96484375 C117.40157852 52.90751005 102.04840335 51.78729934 87.53515625 58.06640625 C74.64011075 64.74537853 68.12252683 74.52459978 63.76171875 88.140625 C59.12310429 105.55327004 60.6991559 126.48838445 69.359375 142.31640625 C75.46803788 152.30843339 83.68654194 157.3008253 94.70703125 160.87890625 C97.15420827 161.44424763 99.49843069 161.78230014 102 162 C103.34578125 162.12181641 103.34578125 162.12181641 104.71875 162.24609375 C115.96695447 162.74500604 127.88280347 160.05194835 137.3984375 153.953125 C139 153 139 153 141 153 C141 154.65 141 156.3 141 158 C124.46858193 167.51249196 107.08304025 169.08095339 88.61328125 164.9765625 C79.67475334 162.56074415 71.97382577 159.12585534 65 153 C64.33355469 152.44957031 63.66710937 151.89914062 62.98046875 151.33203125 C53.46025995 142.79478856 48.7967988 130.44069267 47 118 C47 116.35 47 114.7 47 113 C43.04 113 39.08 113 35 113 C35 77.03 35 41.06 35 4 C23.45 4 11.9 4 0 4 C0 2.68 0 1.36 0 0 Z " fill="#010101" transform="translate(184,178)"/>
<path d="M0 0 C1 2 1 2 -0.07421875 5.3515625 C-0.60770813 6.77764673 -1.14579816 8.20201501 -1.6875 9.625 C-15.49770333 47.51484067 -13.69790751 88.27315249 3.05859375 125.02001953 C10.56786073 140.81362826 20.92718512 154.45632651 33 167 C33.56847656 167.63164062 34.13695312 168.26328125 34.72265625 168.9140625 C58.28036917 194.33952248 97.14402728 208.46449681 131 210 C169.90400004 211.26361417 206.09103973 199.43403186 236 174 C236.95777344 173.18917969 237.91554688 172.37835938 238.90234375 171.54296875 C254.60332001 157.90276151 265.5316516 140.3277998 275 122 C275.33 122.66 275.66 123.32 276 124 C274.91407513 126.5549399 273.77028147 128.97558963 272.5 131.4375 C272.13052246 132.16106689 271.76104492 132.88463379 271.38037109 133.63012695 C253.22608853 168.68868679 221.98356924 195.64651027 184.25 207.75 C181.51416501 208.55938481 178.76316336 209.2901908 176 210 C174.90486084 210.29414795 174.90486084 210.29414795 173.78759766 210.59423828 C152.01213869 216.24966116 125.86256938 216.59136699 104 211 C103.29568848 210.82307617 102.59137695 210.64615234 101.86572266 210.46386719 C75.79025141 203.73133749 52.46925681 191.73032462 33 173 C32.15695313 172.19691406 31.31390625 171.39382813 30.4453125 170.56640625 C20.7044896 161.07724595 13.00803269 150.60111414 6 139 C5.31808594 137.88238281 4.63617188 136.76476562 3.93359375 135.61328125 C-4.97180425 120.35708205 -10.44110321 102.42587566 -13 85 C-13.18304688 83.80503906 -13.36609375 82.61007812 -13.5546875 81.37890625 C-15.3374376 66.61258639 -14.86192498 50.58764048 -12 36 C-11.87641113 35.34837891 -11.75282227 34.69675781 -11.62548828 34.02539062 C-6.22042264 6.22042264 -6.22042264 6.22042264 0 0 Z " fill="#020202" transform="translate(109,192)"/>
<path d="M0 0 C1.01078814 3.03236443 1.2313039 5.32053167 1.3125 8.5 C1.34988281 9.4590625 1.38726562 10.418125 1.42578125 11.40625 C1 14 1 14 -0.828125 15.8515625 C-3.91864444 17.48575803 -5.70634711 16.98108809 -9 16 C-10.68359375 14.4453125 -10.68359375 14.4453125 -12 13 C-12.48210937 13.5775 -12.96421875 14.155 -13.4609375 14.75 C-14.09257812 15.4925 -14.72421875 16.235 -15.375 17 C-16.31472656 18.11375 -16.31472656 18.11375 -17.2734375 19.25 C-17.84320313 19.8275 -18.41296875 20.405 -19 21 C-19.66 21 -20.32 21 -21 21 C-21.77734375 19.359375 -21.77734375 19.359375 -22 17 C-20.12890625 14.203125 -20.12890625 14.203125 -17.5625 11.25 C-16.29599609 9.77273437 -16.29599609 9.77273437 -15.00390625 8.265625 C-14.34261719 7.51796875 -13.68132812 6.7703125 -13 6 C-14.258125 6.33 -15.51625 6.66 -16.8125 7 C-19.38987302 7.67603227 -21.30212925 8 -24 8 C-24 6.68 -24 5.36 -24 4 C-20.37552059 3.33048182 -16.75033483 2.66486934 -13.125 2 C-12.09246094 1.80921875 -11.05992187 1.6184375 -9.99609375 1.421875 C-8.51689453 1.15117187 -8.51689453 1.15117187 -7.0078125 0.875 C-5.64100342 0.62363281 -5.64100342 0.62363281 -4.24658203 0.3671875 C-2 0 -2 0 0 0 Z M-7.125 5 C-7.84945313 5.185625 -8.57390625 5.37125 -9.3203125 5.5625 C-9.87460937 5.706875 -10.42890625 5.85125 -11 6 C-10.03223902 9.79547921 -10.03223902 9.79547921 -8 13 C-5.58462162 13.41717279 -5.58462162 13.41717279 -3 13 C-0.99034226 11.40383995 -0.99034226 11.40383995 0 9 C-0.22197813 6.3015411 -0.22197813 6.3015411 -1 4 C-3.21029533 4 -4.98667593 4.44817443 -7.125 5 Z " fill="#020202" transform="translate(393,212)"/>
<path d="M0 0 C4.16985575 1.88890901 6.37362624 4.20634901 9 8 C9.51581456 11.28831781 9.59272195 13.01213009 7.875 15.875 C5.18282457 17.49030526 3.07846795 17.26199727 0 17 C-0.66 16.67 -1.32 16.34 -2 16 C-2.33 20.29 -2.66 24.58 -3 29 C-4.32 28.34 -5.64 27.68 -7 27 C-6.85930804 24.87465341 -6.71229079 22.74972471 -6.5625 20.625 C-6.48128906 19.44164062 -6.40007812 18.25828125 -6.31640625 17.0390625 C-6 14 -6 14 -5 12 C-5.54269531 12.51691406 -6.08539063 13.03382813 -6.64453125 13.56640625 C-7.71767578 14.55447266 -7.71767578 14.55447266 -8.8125 15.5625 C-9.87404297 16.55443359 -9.87404297 16.55443359 -10.95703125 17.56640625 C-11.63121094 18.03949219 -12.30539062 18.51257813 -13 19 C-13.99 18.67 -14.98 18.34 -16 18 C-14.6415798 14.95667235 -13.11536976 12.87690849 -10.7421875 10.546875 C-10.11699219 9.928125 -9.49179687 9.309375 -8.84765625 8.671875 C-8.19667969 8.03765625 -7.54570312 7.4034375 -6.875 6.75 C-6.21628906 6.1003125 -5.55757813 5.450625 -4.87890625 4.78125 C-3.25703357 3.18288273 -1.6306719 1.58938103 0 0 Z M2 3 C-0.31 5.31 -2.62 7.62 -5 10 C-3.33454661 12.16641665 -3.33454661 12.16641665 -1 14 C2.39154295 13.83849795 3.58296757 13.41703243 6 11 C5.91115 7.96655046 5.91115 7.96655046 5 5 C4.01 4.34 3.02 3.68 2 3 Z " fill="#020202" transform="translate(346,135)"/>
<path d="M0 0 C0.99 0 1.98 0 3 0 C4.17430074 3.2681432 5.33811256 6.53992515 6.5 9.8125 C6.83386719 10.74126953 7.16773438 11.67003906 7.51171875 12.62695312 C7.82753906 13.51962891 8.14335937 14.41230469 8.46875 15.33203125 C8.76201172 16.15421143 9.05527344 16.9763916 9.35742188 17.82348633 C10 20 10 20 10 23 C9.01 23.33 8.02 23.66 7 24 C6.32880451 22.5437455 5.66318193 21.08492133 5 19.625 C4.62875 18.81289062 4.2575 18.00078125 3.875 17.1640625 C3 15 3 15 3 13 C0.36 13.99 -2.28 14.98 -5 16 C-4.855625 16.680625 -4.71125 17.36125 -4.5625 18.0625 C-3.93054091 21.36273082 -3.45686059 24.67144426 -3 28 C-4.87988281 27.77514648 -4.87988281 27.77514648 -7 27 C-8.09667969 25.08227539 -8.09667969 25.08227539 -8.921875 22.59765625 C-9.22480469 21.70755859 -9.52773437 20.81746094 -9.83984375 19.90039062 C-10.14019531 18.96388672 -10.44054687 18.02738281 -10.75 17.0625 C-11.06582031 16.12986328 -11.38164062 15.19722656 -11.70703125 14.23632812 C-14 7.37231128 -14 7.37231128 -14 5 C-12.68 4.67 -11.36 4.34 -10 4 C-9.01 6.97 -8.02 9.94 -7 13 C-4.36 12.34 -1.72 11.68 1 11 C0.84402344 10.28972656 0.68804687 9.57945313 0.52734375 8.84765625 C0.23537109 7.46900391 0.23537109 7.46900391 -0.0625 6.0625 C-0.25972656 5.14597656 -0.45695313 4.22945313 -0.66015625 3.28515625 C-0.77230469 2.53105469 -0.88445312 1.77695313 -1 1 C-0.67 0.67 -0.34 0.34 0 0 Z " fill="#020202" transform="translate(206,103)"/>
<path d="M0 0 C4.15798015 1.68088559 6.72972227 4.13211942 9 8 C9.87813403 12.79869205 9.4687275 16.11103405 7.1875 20.4375 C4.80688483 23.22622063 3.21099279 24.83650647 -0.48828125 25.3359375 C-6.46967786 25.41866774 -10.44803599 25.32436581 -15 21 C-17.5050769 17.44440697 -17.99318728 15.42920143 -18.0625 11.0625 C-17.32107923 7.09551668 -15.77811573 4.22291693 -13.01171875 1.2890625 C-8.98107793 -1.29367822 -4.56186821 -0.76031137 0 0 Z M-10 4 C-12.7809855 7.23195613 -14.27502121 9.83017333 -14.5625 14.0625 C-14.30309143 18.0610754 -14.30309143 18.0610754 -11.875 20.9375 C-8.67128224 23.23581926 -6.93377716 24 -3 24 C0.78564427 22.64798419 2.44800793 20.64863328 4.375 17.25 C6.21236371 13.17030261 6.41939873 10.34169022 5 6 C2.62248945 3.49040553 0.72162033 2.27060762 -2.5 1.0625 C-5.94014645 0.97649634 -7.31499024 1.86576148 -10 4 Z " fill="#030303" transform="translate(301,106)"/>
<path d="M0 0 C1.32 0.33 2.64 0.66 4 1 C-0.52496434 9.34522111 -0.52496434 9.34522111 -3.3125 13.1875 C-5.2969781 16.4949635 -5.75712539 18.21437306 -5 22 C-2.91078244 24.17020292 -2.91078244 24.17020292 0 25 C5.36946528 23.87241229 7.4447083 20.16606609 10.3125 15.875 C10.76689453 15.21628906 11.22128906 14.55757812 11.68945312 13.87890625 C12.80387671 12.26005936 13.90343991 10.63100005 15 9 C15.33 9.99 15.66 10.98 16 12 C14.47656444 14.50468129 12.93372721 16.78566991 11.1875 19.125 C10.49043945 20.09373047 10.49043945 20.09373047 9.77929688 21.08203125 C6.2933526 25.8533237 6.2933526 25.8533237 4 27 C-0.97067782 27.3751455 -4.05151502 27.15878799 -8 24 C-9.844089 21.56915541 -10.02485287 20.37831586 -9.82421875 17.32421875 C-8.78243521 13.12252304 -6.85363609 10.16965294 -4.4375 6.625 C-4.01275391 5.98433594 -3.58800781 5.34367187 -3.15039062 4.68359375 C-2.10941258 3.1162785 -1.05595366 1.55726499 0 0 Z " fill="#020202" transform="translate(322,118)"/>
<path d="M0 0 C2.66605569 3.55474092 3.41364439 4.70213988 4.1875 8.75 C4.34605469 9.54921875 4.50460937 10.3484375 4.66796875 11.171875 C4.77753906 11.77515625 4.88710938 12.3784375 5 13 C2.35892646 10.53258609 1.20358597 8.42559084 0 5 C-2.64 5.66 -5.28 6.32 -8 7 C-7.649375 7.763125 -7.29875 8.52625 -6.9375 9.3125 C-6 12 -6 12 -7 15 C-8.4606285 12.35261084 -9 11.10551666 -9 8 C-13.95 9.485 -13.95 9.485 -19 11 C-18.01 13.97 -17.02 16.94 -16 20 C-16.99 19.67 -17.98 19.34 -19 19 C-19.99 15.37 -20.98 11.74 -22 8 C-14.74 5.36 -7.48 2.72 0 0 Z " fill="#030303" transform="translate(385,190)"/>
<path d="M0 0 C1.16015625 0.11794922 1.16015625 0.11794922 2.34375 0.23828125 C4.5 0.6875 4.5 0.6875 7.5 2.6875 C7.17 3.3475 6.84 4.0075 6.5 4.6875 C5.84 4.336875 5.18 3.98625 4.5 3.625 C0.26286693 2.30089592 -2.16181382 2.63793883 -6.5 3.6875 C-9.56461453 6.65634533 -9.73806658 9.65254979 -9.9375 13.75 C-9.81122899 16.88806852 -9.59876324 18.49895199 -8.125 21.3125 C-4.04427097 23.45002473 -0.01359846 22.99759455 4.5 22.6875 C4.5 23.3475 4.5 24.0075 4.5 24.6875 C1.29788792 26.28855604 -2.01746635 26.04418408 -5.5 25.6875 C-8.98478389 24.43823785 -10.93164611 23.33163441 -13.375 20.5625 C-15.33617089 15.55061883 -15.40194823 10.76198094 -13.25 5.8125 C-9.4723947 1.22540785 -5.95974675 -0.66550505 0 0 Z " fill="#030303" transform="translate(270.5,98.3125)"/>
<path d="M0 0 C0 0.66 0 1.32 0 2 C-2.64 2.66 -5.28 3.32 -8 4 C-7.67 6.64 -7.34 9.28 -7 12 C-4.36 11.67 -1.72 11.34 1 11 C1 11.66 1 12.32 1 13 C-1.64 13.33 -4.28 13.66 -7 14 C-6.34 16.97 -5.68 19.94 -5 23 C-2.03 23 0.94 23 4 23 C3.67 23.66 3.34 24.32 3 25 C0.27734375 25.4140625 0.27734375 25.4140625 -3.0625 25.625 C-4.16722656 25.69976562 -5.27195313 25.77453125 -6.41015625 25.8515625 C-7.26480469 25.90054688 -8.11945313 25.94953125 -9 26 C-9.50763865 23.31374546 -10.00627197 20.62631617 -10.5 17.9375 C-10.64308594 17.18533203 -10.78617188 16.43316406 -10.93359375 15.65820312 C-11.776431 11.02259825 -12.15015262 6.7110385 -12 2 C-10.37548581 1.66430703 -8.75037083 1.3315204 -7.125 1 C-6.22007812 0.814375 -5.31515625 0.62875 -4.3828125 0.4375 C-2 0 -2 0 0 0 Z " fill="#020202" transform="translate(231,98)"/>
<path d="M0 0 C0 0.66 0 1.32 0 2 C-1.98 2.99 -1.98 2.99 -4 4 C-2.32142007 9.70887589 0.4672192 14.20287434 3.63671875 19.1953125 C5 22 5 22 4.70703125 24.3671875 C4.47371094 24.90601563 4.24039063 25.44484375 4 26 C0.59055395 24.86351798 0.39306229 24.46011714 -1.26171875 21.47265625 C-1.65810547 20.76302734 -2.05449219 20.05339844 -2.46289062 19.32226562 C-2.86701172 18.57654297 -3.27113281 17.83082031 -3.6875 17.0625 C-4.10322266 16.32064453 -4.51894531 15.57878906 -4.94726562 14.81445312 C-8 9.28544489 -8 9.28544489 -8 7 C-11.465 8.485 -11.465 8.485 -15 10 C-15 9.01 -15 8.02 -15 7 C-12.87767021 5.82823482 -10.75242209 4.66245215 -8.625 3.5 C-7.72007812 2.99919922 -7.72007812 2.99919922 -6.796875 2.48828125 C-2.2265625 0 -2.2265625 0 0 0 Z " fill="#020202" transform="translate(183,113)"/>
<path d="M0 0 C4.08371057 3.6125132 7.53618364 8.13508261 10 13 C9.67 13.99 9.34 14.98 9 16 C8.01 14.68 7.02 13.36 6 12 C2.98116939 12.60901119 0.86780915 13.55554377 -1.671875 15.28515625 C-2.33574219 15.73310547 -2.99960937 16.18105469 -3.68359375 16.64257812 C-4.36550781 17.11115234 -5.04742187 17.57972656 -5.75 18.0625 C-6.44738281 18.53494141 -7.14476562 19.00738281 -7.86328125 19.49414062 C-9.57904993 20.65757281 -11.29000398 21.82809974 -13 23 C-13.66 22.67 -14.32 22.34 -15 22 C-14.62276896 19.49762269 -14.30283111 18.28016901 -12.41772461 16.53613281 C-11.75264893 16.09624023 -11.08757324 15.65634766 -10.40234375 15.203125 C-9.68369141 14.71972656 -8.96503906 14.23632812 -8.22460938 13.73828125 C-7.46986328 13.24714844 -6.71511719 12.75601563 -5.9375 12.25 C-5.17888672 11.74339844 -4.42027344 11.23679688 -3.63867188 10.71484375 C-1.76566023 9.46616932 0.1137518 8.22854949 2 7 C1.01 5.02 0.02 3.04 -1 1 C-0.67 0.67 -0.34 0.34 0 0 Z " fill="#030303" transform="translate(365,154)"/>
<path d="M0 0 C0 1.32 0 2.64 0 4 C-9.9 8.95 -9.9 8.95 -20 14 C-20.99 13.01 -21.98 12.02 -23 11 C-19.30991828 7.94580703 -15.19982046 5.93406905 -10.9375 3.8125 C-10.21755859 3.44447266 -9.49761719 3.07644531 -8.75585938 2.69726562 C-8.06169922 2.34986328 -7.36753906 2.00246094 -6.65234375 1.64453125 C-5.70862915 1.17043823 -5.70862915 1.17043823 -4.74584961 0.68676758 C-3 0 -3 0 0 0 Z " fill="#020202" transform="translate(381,178)"/>
</svg>
